<?xml version="1.0" encoding="UTF-8" standalone="no"?>
<svg width="194px" height="185px" viewBox="0 0 194 185" version="1.1" xmlns="http://www.w3.org/2000/svg" xmlns:xlink="http://www.w3.org/1999/xlink">
    <!-- Generator: Sketch 41.2 (35397) - http://www.bohemiancoding.com/sketch -->
    <title>Artboard 2</title>
    <desc>Created with Sketch.</desc>
    <defs></defs>
    <g id="Page-1" stroke="none" stroke-width="1" fill="none" fill-rule="evenodd">
        <g id="Artboard-2" fill="#000000">
            <g id="noun_573803_cc">
                <g id="Group">
                    <path d="M41.0455556,52.9128205 L17.9333333,52.9128205 C16.7966667,52.9128205 15.2811111,53.6717949 14.9022222,54.8102564 L3.15666667,74.9230769 C2.39888889,76.0615385 2.39888889,77.5794872 3.15666667,78.3384615 L14.9022222,98.4512821 C15.66,99.5897436 16.7966667,100.348718 17.9333333,100.348718 L41.0455556,100.348718 C42.1822222,100.348718 43.6977778,99.5897436 44.0766667,98.4512821 L55.8222222,78.3384615 C56.58,77.2 56.58,75.6820513 55.8222222,74.9230769 L44.0766667,54.8102564 C43.6977778,53.6717949 42.5611111,52.9128205 41.0455556,52.9128205 L41.0455556,52.9128205 Z" id="Shape"></path>
                    <path d="M86.8911111,80.6153846 L63.7788889,80.6153846 C62.6422222,80.6153846 61.1266667,81.374359 60.7477778,82.5128205 L49.0022222,102.625641 C48.2444444,103.764103 48.2444444,105.282051 49.0022222,106.041026 L60.7477778,126.153846 C61.5055556,127.292308 62.6422222,128.051282 63.7788889,128.051282 L86.8911111,128.051282 C88.0277778,128.051282 89.5433333,127.292308 89.9222222,126.153846 L101.667778,106.041026 C102.425556,104.902564 102.425556,103.384615 101.667778,102.625641 L89.9222222,82.5128205 C89.1644444,81.374359 88.0277778,80.6153846 86.8911111,80.6153846 L86.8911111,80.6153846 Z" id="Shape"></path>
                    <path d="M89.9222222,135.641026 C89.1644444,134.502564 88.0277778,133.74359 86.8911111,133.74359 L63.7788889,133.74359 C62.6422222,133.74359 61.1266667,134.502564 60.7477778,135.641026 L49.0022222,155.753846 C48.2444444,156.892308 48.2444444,158.410256 49.0022222,159.169231 L60.7477778,179.282051 C61.5055556,180.420513 62.6422222,181.179487 63.7788889,181.179487 L86.8911111,181.179487 C88.0277778,181.179487 89.5433333,180.420513 89.9222222,179.282051 L101.667778,159.169231 C102.425556,158.030769 102.425556,156.512821 101.667778,155.753846 L89.9222222,135.641026 Z" id="Shape"></path>
                    <path d="M53.5488889,129.189744 L41.8033333,109.076923 C41.0455556,107.938462 39.9088889,107.179487 38.7722222,107.179487 L15.66,107.179487 C14.5233333,107.179487 13.0077778,107.938462 12.6288889,109.076923 L0.883333333,129.189744 C0.125555556,130.328205 0.125555556,131.846154 0.883333333,132.605128 L12.6288889,152.717949 C13.3866667,153.85641 14.5233333,154.615385 15.66,154.615385 L38.7722222,154.615385 C39.9088889,154.615385 41.4244444,153.85641 41.8033333,152.717949 L53.5488889,132.605128 C54.3066667,131.846154 54.3066667,130.328205 53.5488889,129.189744 L53.5488889,129.189744 Z" id="Shape"></path>
                    <path d="M86.8911111,25.9692308 L63.7788889,25.9692308 C62.6422222,25.9692308 61.1266667,26.7282051 60.7477778,27.8666667 L49.0022222,47.9794872 C48.2444444,49.1179487 48.2444444,50.6358974 49.0022222,51.3948718 L60.7477778,71.5076923 C61.5055556,72.6461538 62.6422222,73.4051282 63.7788889,73.4051282 L86.8911111,73.4051282 C88.0277778,73.4051282 89.5433333,72.6461538 89.9222222,71.5076923 L101.667778,51.3948718 C102.425556,50.2564103 102.425556,48.7384615 101.667778,47.9794872 L89.9222222,27.4871795 C89.1644444,26.7282051 88.0277778,25.9692308 86.8911111,25.9692308 L86.8911111,25.9692308 Z" id="Shape"></path>
                    <path d="M110.382222,101.487179 L133.494444,101.487179 C134.631111,101.487179 136.146667,100.728205 136.525556,99.5897436 L148.271111,79.4769231 C149.028889,78.3384615 149.028889,76.8205128 148.271111,76.0615385 L136.525556,55.9487179 C135.767778,54.8102564 134.631111,54.0512821 133.494444,54.0512821 L110.382222,54.0512821 C109.245556,54.0512821 107.73,54.8102564 107.351111,55.9487179 L95.6055556,76.0615385 C94.8477778,77.2 94.8477778,78.7179487 95.6055556,79.4769231 L107.351111,99.5897436 C107.73,100.728205 109.245556,101.487179 110.382222,101.487179 L110.382222,101.487179 Z" id="Shape"></path>
                    <path d="M182.371111,83.6512821 C181.613333,82.5128205 180.476667,81.7538462 179.34,81.7538462 L156.227778,81.7538462 C155.091111,81.7538462 153.575556,82.5128205 153.196667,83.6512821 L141.451111,103.764103 C140.693333,104.902564 140.693333,106.420513 141.451111,107.179487 L153.196667,127.292308 C153.954444,128.430769 155.091111,129.189744 156.227778,129.189744 L179.34,129.189744 C180.476667,129.189744 181.992222,128.430769 182.371111,127.292308 L194.116667,107.179487 C194.874444,106.041026 194.874444,104.523077 194.116667,103.764103 L182.371111,83.6512821 Z" id="Shape"></path>
                    <path d="M182.371111,137.538462 C181.613333,136.4 180.476667,135.641026 179.34,135.641026 L156.227778,135.641026 C155.091111,135.641026 153.575556,136.4 153.196667,137.538462 L141.451111,157.651282 C140.693333,158.789744 140.693333,160.307692 141.451111,161.066667 L153.196667,181.179487 C153.954444,182.317949 155.091111,183.076923 156.227778,183.076923 L179.34,183.076923 C180.476667,183.076923 181.992222,182.317949 182.371111,181.179487 L194.116667,161.066667 C194.874444,159.928205 194.874444,158.410256 194.116667,157.651282 L182.371111,137.538462 Z" id="Shape"></path>
                    <path d="M148.271111,129.189744 L136.525556,109.076923 C135.767778,107.938462 134.631111,107.179487 133.494444,107.179487 L110.382222,107.179487 C109.245556,107.179487 107.73,107.938462 107.351111,109.076923 L95.6055556,129.189744 C94.8477778,130.328205 94.8477778,131.846154 95.6055556,132.605128 L107.351111,152.717949 C108.108889,153.85641 109.245556,154.615385 110.382222,154.615385 L133.494444,154.615385 C134.631111,154.615385 136.146667,153.85641 136.525556,152.717949 L148.271111,132.605128 C149.028889,131.846154 149.028889,130.328205 148.271111,129.189744 L148.271111,129.189744 Z" id="Shape"></path>
                    <path d="M148.271111,22.9333333 L136.525556,2.82051282 C135.767778,1.68205128 134.631111,0.923076923 133.494444,0.923076923 L110.382222,0.923076923 C109.245556,0.923076923 107.73,1.68205128 107.351111,2.82051282 L95.6055556,22.9333333 C94.8477778,24.0717949 94.8477778,25.5897436 95.6055556,26.3487179 L107.351111,46.4615385 C108.108889,47.6 109.245556,48.3589744 110.382222,48.3589744 L133.494444,48.3589744 C134.631111,48.3589744 136.146667,47.6 136.525556,46.4615385 L148.271111,26.3487179 C149.028889,25.2102564 149.028889,23.6923077 148.271111,22.9333333 L148.271111,22.9333333 Z" id="Shape"></path>
                </g>
            </g>
        </g>
    </g>
</svg>